<svg width="256" height="256" viewBox="0 0 256 256" fill="none" xmlns="http://www.w3.org/2000/svg">
  <rect width="256" height="256" rx="32" fill="#050505"/>
  <svg x="48" y="48" width="160" height="160" viewBox="0 0 197 112" preserveAspectRatio="xMidYMid meet">
    <path opacity="0.5" d="M102.844 49.2308H74.4562C70.7951 49.2308 68.4139 53.0822 70.0512 56.3556L96.6531 109.538C96.6531 109.538 97.8843 112 100.962 112C104.041 112 105.272 109.538 105.272 109.538L120.662 78.7692L124.972 70.1538C124.972 70.1538 123.125 73.8462 120.662 73.8462C118.2 73.8462 116.353 70.1538 116.353 70.1538L107.249 51.9521C106.414 50.2843 104.709 49.2308 102.844 49.2308Z" fill="white"/>
    <path opacity="0.5" d="M33.894 49.2308H5.50656C1.8454 49.2308 -0.535829 53.0822 1.1015 56.3556L27.7034 109.538C27.7034 109.538 28.9346 112 32.0127 112C35.0909 112 36.3221 109.538 36.3221 109.538L51.7127 78.7692L56.0221 70.1538C56.0221 70.1538 54.1752 73.8462 51.7127 73.8462C49.2502 73.8462 47.4034 70.1538 47.4034 70.1538L38.299 51.9521C37.4647 50.2843 35.7594 49.2308 33.894 49.2308Z" fill="white"/>
    <path d="M89.0912 4.04119C90.3425 1.53938 92.8801 0 95.6782 0H122.544C126.204 0 128.586 3.85137 126.949 7.12474L76.5328 107.918C75.2814 110.42 72.7419 112 69.9438 112C58.8852 112 31.521 112 32.0124 112C32.628 112 35.0905 112 36.9378 108.308C38.5668 105.052 79.4534 23.3092 89.0912 4.04119Z" fill="white"/>
    <path d="M158.048 4.04119C159.299 1.53938 161.837 0 164.635 0H191.5C195.162 0 197.543 3.85137 195.905 7.12474L145.489 107.918C144.238 110.42 141.698 112 138.9 112C127.842 112 100.478 112 100.969 112C101.584 112 104.047 112 105.894 108.308C107.523 105.052 148.41 23.3092 158.048 4.04119Z" fill="white"/>
    <path opacity="0.5" d="M48.8293 25.4564L57.9986 7.12475C59.6359 3.85138 57.2547 0 53.5936 0H26.7281C23.9299 0 21.3719 1.58032 20.1205 4.08212L10.9511 22.4137C9.31381 25.687 11.695 29.5385 15.3561 29.5385H42.2216C45.0198 29.5385 47.5778 27.9582 48.8293 25.4564Z" fill="white"/>
  </svg>
</svg>
