<?xml version="1.0" encoding="UTF-8"?>
<svg version="1.1" xmlns="http://www.w3.org/2000/svg" width="699" height="885">
<path d="M0 0 C0.79921875 0.03222656 1.5984375 0.06445312 2.421875 0.09765625 C9.91724251 2.32349052 15.80244509 9.14656463 21.3125 14.4375 C22.65613432 15.72023672 24.00117402 17.00150304 25.34765625 18.28125 C25.93039307 18.84005859 26.51312988 19.39886719 27.11352539 19.97460938 C29.07351179 21.91851012 29.07351179 21.91851012 30.96037292 22.92430115 C34.53085578 25.24537566 36.01163158 27.10201999 37.19554138 31.25161743 C37.98130407 35.58876651 38.40950652 39.96520532 38.85546875 44.34765625 C39.04714615 46.00315077 39.24213428 47.65826492 39.44023132 49.31300354 C39.85281102 52.77844982 40.25125962 56.2451166 40.64105225 59.7131958 C41.49180124 67.15840938 42.55090262 74.57383571 43.58862686 81.99476242 C44.27415664 86.95359302 44.92157839 91.91751246 45.57153511 96.88110924 C46.11594007 101.02978131 46.67098086 105.17637942 47.25219727 109.32006836 C50.71634666 134.10977118 51.84580689 158.28392296 51.38442993 183.2984314 C51.28109514 188.91534307 51.20008803 194.53215403 51.13143921 200.14956665 C50.8806407 220.47508132 50.53581761 240.79631814 50.07133007 261.11813068 C49.84724149 270.98630074 49.64963642 280.85351659 49.51782227 290.72338867 C48.3921147 373.02948851 48.3921147 373.02948851 33.14266968 409.31277466 C30.40426661 415.87015017 28.28621281 422.62177464 26.12902069 429.38711929 C25.05788626 432.71901733 23.93898409 436.0345694 22.82055664 439.35083008 C22.38586764 440.64405052 21.95130789 441.93731442 21.51687622 443.23062134 C21.29975605 443.87659397 21.08263588 444.5225666 20.85893631 445.18811417 C18.7298464 451.52806352 16.61187395 457.87174584 14.4921875 464.21484375 C14.26226923 464.90255545 14.03235096 465.59026714 13.79546547 466.29881859 C9.74057004 478.42965457 5.75225372 490.58128069 1.8125 502.75 C-3.1067686 517.94198163 -8.1222941 533.09947624 -13.18859863 548.24304199 C-18.88791374 565.28434445 -24.47701311 582.36013944 -30.0168457 599.4539032 C-30.54637934 601.08538759 -31.07725767 602.71643627 -31.60961914 604.34700012 C-32.73178615 607.78427275 -33.83784905 611.22269301 -34.90234375 614.6784668 C-35.2375 615.7487915 -35.57265625 616.81911621 -35.91796875 617.921875 C-36.19020264 618.81745117 -36.46243652 619.71302734 -36.74291992 620.63574219 C-38.61515569 624.91487888 -42.10638059 627.20165519 -45.75 629.9375 C-47.42986012 631.42270966 -49.09604506 632.9234951 -50.75 634.4375 C-56.07334693 639.23657792 -61.43863339 643.9782795 -66.90234375 648.6171875 C-74.0402142 654.68548107 -81.01169262 660.88852183 -87.87109375 667.26953125 C-92.4413918 671.5049635 -97.14164663 675.57276191 -101.890625 679.60546875 C-108.47419453 685.20542438 -114.9436397 690.8911087 -121.26953125 696.78125 C-124.72713632 700.00039955 -128.23029051 703.14994243 -131.8046875 706.23828125 C-134.0866529 708.23156428 -136.32228574 710.27243027 -138.5625 712.3125 C-141.93940982 715.36608867 -145.38217132 718.28179205 -148.9375 721.125 C-155.00816662 726.03154731 -160.64068915 731.36950617 -166.3203125 736.71875 C-170.51808922 740.67066017 -174.83290505 744.46095773 -179.22753906 748.19189453 C-186.92792447 754.73154337 -194.47408916 761.38841217 -201.87109375 768.26953125 C-206.46553261 772.52733551 -211.19491591 776.6124247 -215.9609375 780.67578125 C-216.55269775 781.18109375 -217.14445801 781.68640625 -217.75415039 782.20703125 C-218.9054129 783.18934245 -220.05809294 784.1699965 -221.21264648 785.1484375 C-221.76766846 785.62152344 -222.32269043 786.09460938 -222.89453125 786.58203125 C-223.47091024 787.06151278 -224.04728924 787.5409943 -224.64113426 788.03500557 C-226.83519952 789.94191781 -226.83519952 789.94191781 -228.87970924 792.35145378 C-237.14151055 801.17136436 -244.75045356 801.87193935 -256.32568359 802.81689453 C-258.18834093 803.00178929 -260.05061665 803.19056286 -261.91252136 803.38288879 C-266.94035962 803.89107801 -271.97176476 804.34474863 -277.00567961 804.78809214 C-282.29168343 805.26277647 -287.57278578 805.78695291 -292.85464478 806.3053894 C-301.72378328 807.16907075 -310.59542158 808.00077051 -319.46972656 808.80957031 C-331.95275721 809.94731339 -344.42980746 811.14233504 -356.9063251 812.34913087 C-366.6318254 813.28787289 -376.35871335 814.21212539 -386.0859375 815.1328125 C-387.12204902 815.23093813 -388.15816054 815.32906377 -389.22566938 815.43016291 C-395.2023856 815.99501735 -401.17973439 816.55224061 -407.15815163 817.09880638 C-408.96217714 817.26449267 -410.7660249 817.4321289 -412.56966591 817.60194969 C-440.34335253 820.21113504 -440.34335253 820.21113504 -451.5859375 815.921875 C-452.93285927 815.43722275 -452.93285927 815.43722275 -454.30699158 814.94277954 C-457.25381835 813.87711026 -460.1889957 812.78259499 -463.125 811.6875 C-465.21309366 810.92599652 -467.30189691 810.16643637 -469.39135742 809.40869141 C-473.84080904 807.79122294 -478.28551333 806.16153399 -482.72705078 804.52246094 C-489.96290785 801.85419342 -497.21270641 799.22520181 -504.46484375 796.6015625 C-527.13015337 788.39539585 -527.13015337 788.39539585 -535.72845459 785.2277832 C-540.58762995 783.43927082 -545.4504779 781.68729617 -550.36083984 780.04394531 C-551.66446724 779.59639389 -551.66446724 779.59639389 -552.99443054 779.13980103 C-554.58212147 778.59648281 -556.17556032 778.06950153 -557.77571106 777.5640564 C-564.31639204 775.29322746 -568.05920265 771.24558178 -571.1875 765.125 C-573.54238521 751.78065047 -565.44968961 741.19386124 -558.8125 730.3125 C-554.77798491 723.66204128 -550.76572419 717.00562823 -546.90234375 710.25390625 C-546.2880249 709.18285645 -545.67370605 708.11180664 -545.04077148 707.00830078 C-543.88057482 704.97831251 -542.7272864 702.944354 -541.58227539 700.90576172 C-537.86531527 694.41893798 -533.83191216 687.51554979 -527.375 683.4375 C-521.67680462 682.35212945 -516.05041808 682.87750517 -510.3125 683.4375 C-508.45871684 683.60837945 -506.60454492 683.77509635 -504.75 683.9375 C-503.87859375 684.01742187 -503.0071875 684.09734375 -502.109375 684.1796875 C-500.84867188 684.24542969 -500.84867188 684.24542969 -499.5625 684.3125 C-498.82644531 684.36148438 -498.09039062 684.41046875 -497.33203125 684.4609375 C-492.01639837 683.38333568 -488.13457946 681.01365243 -485.09936523 676.46240234 C-483.46208477 673.33326038 -481.99451946 670.16574797 -480.5625 666.9375 C-480.01787109 665.76372803 -479.47324219 664.58995605 -478.91210938 663.38061523 C-476.22500652 657.57827664 -473.6505115 651.72624411 -471.08512878 645.86929321 C-470.20873366 643.86936917 -469.32847948 641.87117459 -468.44799805 639.87304688 C-467.32980044 637.33401929 -466.2338824 634.78694519 -465.15161133 632.23242188 C-464.64782959 631.07419922 -464.14404785 629.91597656 -463.625 628.72265625 C-462.97144531 627.18943726 -462.97144531 627.18943726 -462.3046875 625.62524414 C-459.272048 620.38241622 -454.49207331 618.11995043 -449.20703125 615.484375 C-448.29252449 615.02674774 -448.29252449 615.02674774 -447.35954285 614.55987549 C-446.08105731 613.92179534 -444.80110869 613.28663898 -443.51977539 612.65429688 C-441.5542109 611.6834056 -439.5942694 610.70180649 -437.63476562 609.71875 C-428.02933088 604.9375 -428.02933088 604.9375 -425.75 604.9375 C-426.21639893 603.97432861 -426.68279785 603.01115723 -427.16333008 602.01879883 C-429.03294533 597.63957856 -429.60419069 593.3407595 -430.13671875 588.63671875 C-430.24345413 587.76030228 -430.35018951 586.8838858 -430.4601593 585.98091125 C-430.68267062 584.13509251 -430.90004806 582.28864837 -431.11254883 580.44165039 C-431.4354943 577.64238529 -431.77596144 574.84567697 -432.11914062 572.04882812 C-432.33437747 570.24491594 -432.54860297 568.44088275 -432.76171875 566.63671875 C-432.86167648 565.81346603 -432.96163422 564.99021332 -433.06462097 564.14201355 C-434.74275695 549.34101683 -434.74275695 549.34101683 -432.5625 544.0625 C-427.89848959 538.59434986 -422.22447266 536.140503 -415.76953125 533.34765625 C-414.8015007 532.92125351 -413.83347015 532.49485077 -412.83610535 532.05552673 C-409.7479572 530.69659863 -406.65551216 529.34781589 -403.5625 528 C-400.48812806 526.65404117 -397.41473444 525.30590874 -394.342453 523.95518494 C-392.43491199 523.11719786 -390.52606731 522.2821695 -388.61567688 521.45069885 C-384.11466006 519.47967573 -379.64599819 517.45189113 -375.22143555 515.31420898 C-374.41473923 514.92466537 -373.60804291 514.53512177 -372.77690125 514.1337738 C-370.48983263 512.94681383 -370.48983263 512.94681383 -368.5625 510.1875 C-366.73887994 502.89301977 -369.25117459 495.42017652 -371.2890625 488.37109375 C-371.79211216 486.56848364 -372.29470263 484.76574533 -372.796875 482.96289062 C-373.5855627 480.16142667 -374.37887871 477.36146565 -375.18066406 474.5637207 C-375.95915854 471.8363632 -376.71893985 469.10431102 -377.4765625 466.37109375 C-377.7191983 465.54379257 -377.96183411 464.71649139 -378.21182251 463.86412048 C-379.82573347 457.9817501 -380.6349724 452.53070202 -377.66943359 446.87768555 C-373.32393925 442.23656384 -368.51624625 438.47716941 -363.375 434.75 C-361.59747128 433.44165752 -359.82013025 432.13305999 -358.04296875 430.82421875 C-357.15786621 430.17630371 -356.27276367 429.52838867 -355.36083984 428.86083984 C-352.8869947 427.03842054 -350.43363898 425.19243923 -347.98828125 423.33203125 C-347.2597998 422.77862061 -346.53131836 422.22520996 -345.78076172 421.6550293 C-344.41477094 420.61579932 -343.05043254 419.57439276 -341.68798828 418.53051758 C-339.05492115 416.53919534 -336.90541875 414.98930625 -333.75 413.9375 C-334.88695312 412.75800781 -334.88695312 412.75800781 -336.046875 411.5546875 C-339.41498356 407.50488136 -340.61566393 403.07141491 -342 398.0625 C-342.25523437 397.20269531 -342.51046875 396.34289062 -342.7734375 395.45703125 C-347.12526114 380.36307451 -347.12526114 380.36307451 -343.75 372.9375 C-337.86365062 366.48860201 -330.10608161 362.24047568 -322.6875 357.8125 C-318.36042579 355.21103555 -314.04758389 352.58744556 -309.75 349.9375 C-309.00379395 349.48922852 -308.25758789 349.04095703 -307.48876953 348.57910156 C-303.03773624 345.71613712 -301.18908525 343.01533693 -299.75 337.9375 C-299.6689465 334.50714145 -299.6689465 334.50714145 -300.3125 330.9375 C-300.45824463 329.93348145 -300.45824463 329.93348145 -300.60693359 328.90917969 C-301.39612407 323.65498778 -302.37967989 318.43369932 -303.32983398 313.20678711 C-307.44866669 290.39550004 -307.44866669 290.39550004 -304 283.375 C-300.04693161 279.09250925 -297.12750748 277.54058661 -291.375 276.40234375 C-290.14265625 276.15033203 -288.9103125 275.89832031 -287.640625 275.63867188 C-286.35671875 275.38666016 -285.0728125 275.13464844 -283.75 274.875 C-281.20733713 274.36825444 -278.66561928 273.85673753 -276.125 273.33984375 C-274.43503906 273.00714478 -274.43503906 273.00714478 -272.7109375 272.66772461 C-268.79570196 271.7021516 -266.50112002 270.93899336 -264.0625 267.6875 C-261.27163251 261.83996812 -261.6040925 255.57186239 -261.57421875 249.2265625 C-261.5510241 247.32290557 -261.52690691 245.41925969 -261.50195312 243.515625 C-261.46686752 240.53800994 -261.43749236 237.56080441 -261.42407227 234.58300781 C-261.40852615 231.69286597 -261.36828603 228.80389238 -261.32421875 225.9140625 C-261.32612717 225.0336026 -261.32803558 224.1531427 -261.33000183 223.2460022 C-261.21528218 217.39610584 -260.23929738 212.74129989 -256.75 207.9375 C-253.33663621 205.22466631 -249.69559019 204.1550572 -245.53125 202.96484375 C-244.35175781 202.62259766 -243.17226563 202.28035156 -241.95703125 201.92773438 C-240.73371094 201.58033203 -239.51039063 201.23292969 -238.25 200.875 C-235.82230682 200.17790159 -233.3951992 199.47875994 -230.96875 198.77734375 C-229.89560547 198.47175537 -228.82246094 198.16616699 -227.71679688 197.85131836 C-222.51609835 196.57847049 -222.51609835 196.57847049 -218.61206055 193.29858398 C-215.84949178 184.74428726 -216.43829777 175.9364297 -216.66210938 167.04101562 C-216.61831924 157.37312659 -214.51078509 152.73338227 -207.75 145.9375 C-206.61385052 144.62040994 -205.48677693 143.29540852 -204.37109375 141.9609375 C-203.31189383 140.74305112 -202.25073033 139.52686937 -201.1875 138.3125 C-200.66220703 137.70921875 -200.13691406 137.1059375 -199.59570312 136.484375 C-198.55895889 135.29446098 -197.51671713 134.10930574 -196.46803284 132.92990112 C-195.34956296 131.63281263 -194.26729204 130.30331254 -193.22996521 128.94046021 C-188.87161074 123.40905285 -185.14721401 121.39319636 -178.4140625 119.65625 C-176.60880316 119.11910564 -174.80413237 118.57998 -173 118.0390625 C-170.19305604 117.22966827 -167.38404016 116.43991301 -164.56152344 115.68652344 C-151.64888467 112.40125645 -151.64888467 112.40125645 -142.47084045 103.39910889 C-141.03071426 100.64805415 -139.76555162 97.86056637 -138.59643555 94.984375 C-137.2953861 91.83813946 -135.72066591 88.85794556 -134.16796875 85.828125 C-132.52821282 82.47416782 -130.90215142 79.11404841 -129.28320312 75.75 C-128.48366211 74.11804688 -128.48366211 74.11804688 -127.66796875 72.453125 C-127.20156982 71.48665039 -126.7351709 70.52017578 -126.25463867 69.52441406 C-123.92604584 65.52088175 -122.01368899 63.30665036 -117.52734375 61.99609375 C-116.26019531 61.79113281 -114.99304688 61.58617187 -113.6875 61.375 C-112.99865723 61.25769531 -112.30981445 61.14039063 -111.60009766 61.01953125 C-107.63621316 60.35490669 -103.6600627 59.77508722 -99.68359375 59.19140625 C-98.84127197 59.06515869 -97.9989502 58.93891113 -97.13110352 58.80883789 C-95.49645511 58.56662647 -93.86021791 58.33483999 -92.22241211 58.11499023 C-86.75721322 57.31944909 -81.92226426 56.54626964 -78.19970703 52.07568359 C-76.51497388 49.71870433 -74.93638416 47.31534926 -73.375 44.875 C-72.23319501 43.15053553 -71.08868094 41.42786161 -69.94140625 39.70703125 C-69.39371582 38.88154785 -68.84602539 38.05606445 -68.28173828 37.20556641 C-57.74398037 21.60216012 -57.74398037 21.60216012 -49.75 18.9375 C-46.06314676 18.97761413 -42.38760493 19.06022685 -38.70507812 19.24023438 C-32.8699418 19.37163444 -28.57183117 18.31491812 -23.75 14.9375 C-21.42672865 12.57838636 -21.42672865 12.57838636 -19.6875 9.9375 C-14.55315482 3.08834405 -8.75548069 -0.54373208 0 0 Z " fill="#CD8544" transform="translate(647.75,66.0625)"/>
<path d="M0 0 C0.76054688 0.62519531 1.52109375 1.25039063 2.3046875 1.89453125 C3.66787109 2.98314453 3.66787109 2.98314453 5.05859375 4.09375 C5.5498877 4.50544434 6.04118164 4.91713867 6.54736328 5.34130859 C8.37335266 6.86906579 10.22552534 8.36105218 12.08203125 9.8515625 C14.84985073 12.0787616 17.60380706 14.32147056 20.34765625 16.578125 C22.66069021 18.47695253 24.98678647 20.35076288 27.35546875 22.1796875 C28.69158203 23.21416016 28.69158203 23.21416016 30.0546875 24.26953125 C30.81523438 24.84832031 31.57578125 25.42710938 32.359375 26.0234375 C35.0113761 28.47625397 36.00957627 30.50834051 36.515625 34.07421875 C36.60469104 39.79225882 36.17355407 43.26940173 32.1796875 47.70703125 C28.84855115 50.2341002 25.20257138 50.19833609 21.1796875 49.70703125 C15.81161321 48.23360742 10.58536879 46.31876352 5.33984375 44.46289062 C-2.12819549 41.93021225 -6.31600943 41.20559689 -13.8203125 43.70703125 C-14.5351283 45.01518284 -15.19580942 46.35343673 -15.8203125 47.70703125 C-16.82288877 49.04633393 -17.86526011 50.35641611 -18.9375 51.640625 C-19.54464844 52.37216797 -20.15179687 53.10371094 -20.77734375 53.85742188 C-21.41027344 54.61216797 -22.04320312 55.36691406 -22.6953125 56.14453125 C-23.94297238 57.64300935 -25.19037484 59.14170184 -26.4375 60.640625 C-27.0253125 61.34348633 -27.613125 62.04634766 -28.21875 62.77050781 C-29.54761999 64.3773061 -30.84110148 66.01329511 -32.125 67.65625 C-34.25286139 70.23027587 -35.56088622 70.96625255 -38.8203125 71.70703125 C-44.71713658 71.2638445 -49.58130639 69.91783533 -55.046875 67.73046875 C-56.58843933 67.1364531 -58.13010915 66.54271115 -59.671875 65.94921875 C-62.06774008 65.01470335 -64.46165443 64.07557665 -66.85351562 63.13085938 C-69.18421336 62.2142072 -71.52117766 61.31528375 -73.859375 60.41796875 C-74.56889313 60.13158539 -75.27841125 59.84520203 -76.00942993 59.55014038 C-80.34324485 57.89798305 -83.34822382 57.35006286 -87.8203125 58.70703125 C-90.46343816 60.9017183 -90.46343816 60.9017183 -92.8203125 63.70703125 C-94.09648438 65.05667969 -94.09648438 65.05667969 -95.3984375 66.43359375 C-100.65447508 72.13531873 -105.69094824 77.92406686 -110.5546875 83.96875 C-113.7553641 87.83715396 -117.14621563 91.51758696 -120.55859375 95.19921875 C-122.86323759 97.65787502 -122.86323759 97.65787502 -124.73828125 100.40234375 C-127.85276765 103.84989906 -130.69283692 104.52436062 -135.265625 104.91699219 C-138.12071597 105.04815555 -140.96232391 105.07824081 -143.8203125 105.08203125 C-144.79226563 105.10652344 -145.76421875 105.13101563 -146.765625 105.15625 C-152.58120022 105.18001938 -156.38944434 104.87481661 -160.8203125 100.70703125 C-161.86172788 98.72828063 -162.86753451 96.72995342 -163.8203125 94.70703125 C-164.22854248 95.85969482 -164.22854248 95.85969482 -164.64501953 97.03564453 C-169.29018299 108.99100176 -176.42069855 119.08586276 -183.6953125 129.58203125 C-186.35388603 133.42068858 -189.00979704 137.26113431 -191.66015625 141.10546875 C-192.3032222 142.03611145 -192.94628815 142.96675415 -193.60884094 143.92559814 C-197.01160123 148.89675213 -200.13544911 153.85739526 -202.94921875 159.18359375 C-212.77814271 177.42839197 -228.15213927 183.80652034 -246.44367981 191.84075928 C-258.02992786 196.53595916 -258.02992786 196.53595916 -265.8203125 205.70703125 C-267.42337379 216.70405389 -264.94289302 229.15023784 -263.87573242 240.17553711 C-263.62884782 242.75387109 -263.40455418 245.3333948 -263.18359375 247.9140625 C-263.10248856 248.69336624 -263.02138336 249.47266998 -262.93782043 250.27558899 C-262.50199094 255.63625907 -263.21222278 258.96957985 -265.8203125 263.70703125 C-271.59063753 270.24754204 -281.34117138 273.86529408 -289.0078125 277.83203125 C-291.0444588 278.88817749 -293.07984068 279.9464827 -295.1118927 281.01144409 C-296.36686519 281.66899923 -297.62444057 282.32162028 -298.88505554 282.96829224 C-306.41567856 286.85626385 -306.41567856 286.85626385 -310.8203125 293.70703125 C-311.09695399 298.95793075 -310.30884876 303.47092436 -308.8515625 308.4765625 C-308.44123334 309.9576344 -308.03108269 311.43875576 -307.62109375 312.91992188 C-306.97342402 315.21809688 -306.32160667 317.51500261 -305.66552734 319.81079102 C-300.40677935 338.31578066 -300.40677935 338.31578066 -301.8203125 344.70703125 C-304.19809156 348.77253669 -307.1209671 351.80759863 -311.63623047 353.29760742 C-313.06369753 353.66153151 -314.49818809 353.99867813 -315.9375 354.3125 C-317.10670486 354.60195747 -317.10670486 354.60195747 -318.29953003 354.89726257 C-319.95591832 355.30716833 -321.61476599 355.70724555 -323.27575684 356.0980835 C-326.65657181 356.9071598 -330.01057295 357.80604813 -333.36798096 358.70657349 C-337.55562277 359.82914438 -341.75119452 360.92145697 -345.9453125 362.01953125 C-347.6940413 362.47839795 -349.44273935 362.93738185 -351.19140625 363.39648438 C-355.40069057 364.50134322 -359.61038027 365.6046439 -363.8203125 366.70703125 C-363.60511459 367.49772507 -363.38991669 368.28841888 -363.16819763 369.10307312 C-361.14086018 376.55969223 -359.12403689 384.019038 -357.11892605 391.4816618 C-356.0877394 395.31806098 -355.05253998 399.15328158 -354.00805664 402.98608398 C-352.99998481 406.68585934 -352.00260315 410.38836595 -351.01252937 414.0929966 C-350.63317256 415.50498466 -350.24999259 416.91595135 -349.86291313 418.3258419 C-349.32085697 420.302784 -348.79258234 422.28294078 -348.26733398 424.2644043 C-347.9631102 425.39025436 -347.65888641 426.51610443 -347.34544373 427.67607117 C-346.38251742 433.23390329 -348.10690343 436.59094277 -351.00390625 441.265625 C-351.67623291 442.3594751 -352.34855957 443.4533252 -353.04125977 444.58032227 C-353.4022879 445.1603299 -353.76331604 445.74033752 -354.13528442 446.33792114 C-355.27378306 448.17023446 -356.39998271 450.00959893 -357.52319336 451.85131836 C-361.19650626 457.86640613 -364.90623576 463.8564745 -368.67472839 469.81242371 C-370.35490531 472.47703056 -372.01559256 475.15347606 -373.67337036 477.83206177 C-374.47192152 479.11130321 -375.27946401 480.38498095 -376.09640503 481.65255737 C-381.89042931 490.64921413 -384.37768597 496.98678949 -382.22680664 507.64916992 C-381.49947634 510.71482391 -380.6812423 513.73882568 -379.8203125 516.76953125 C-374.80346987 534.49796837 -374.80346987 534.49796837 -378.2578125 541.70703125 C-382.87297912 547.11015314 -387.59522327 552.39512495 -392.5234375 557.515625 C-393.84601563 558.90974609 -393.84601563 558.90974609 -395.1953125 560.33203125 C-396.41347656 561.58886719 -396.41347656 561.58886719 -397.65625 562.87109375 C-403.20865451 570.14734948 -403.05929475 576.29373231 -402.0078125 585.14453125 C-401.79591729 587.27556363 -401.58891394 589.4070879 -401.38671875 591.5390625 C-401.28633301 592.58271973 -401.18594727 593.62637695 -401.08251953 594.70166016 C-400.71505955 598.91342214 -400.50862366 603.10541615 -400.4453125 607.33203125 C-400.41695312 608.62367188 -400.38859375 609.9153125 -400.359375 611.24609375 C-401.01603991 616.1766455 -403.08060677 619.15946169 -406.765625 622.4375 C-414.57794783 627.6597158 -422.59712449 632.54070095 -430.65136719 637.37915039 C-432.11300329 638.27399942 -433.56158332 639.19048681 -434.99707031 640.12670898 C-435.68897461 640.57731689 -436.38087891 641.0279248 -437.09375 641.4921875 C-437.70395996 641.89832275 -438.31416992 642.30445801 -438.94287109 642.72290039 C-442.15500291 644.40665895 -445.23170734 644.51478454 -448.8203125 644.70703125 C-448.33380974 645.54158089 -448.33380974 645.54158089 -447.83747864 646.39299011 C-446.6782016 649.0303319 -446.56076105 650.85940893 -446.5456543 653.73168945 C-446.53612228 654.72985184 -446.52659027 655.72801422 -446.51676941 656.75642395 C-446.51813652 658.36586128 -446.51813652 658.36586128 -446.51953125 660.0078125 C-446.51524612 661.11754929 -446.510961 662.22728607 -446.50654602 663.37065125 C-446.50080407 665.71836668 -446.50030146 668.06609991 -446.50463867 670.41381836 C-446.50779143 673.99559137 -446.48436183 677.57653265 -446.45898438 681.15820312 C-446.45671058 683.44140521 -446.45600826 685.72460951 -446.45703125 688.0078125 C-446.4478215 689.07469803 -446.43861176 690.14158356 -446.42912292 691.24079895 C-446.46559751 697.14121977 -446.59142162 701.6753197 -449.8203125 706.70703125 C-452.2931444 708.78308268 -454.95097284 710.24320842 -457.8203125 711.70703125 C-458.62207916 712.11825226 -459.42384583 712.52947327 -460.24990845 712.95315552 C-462.93184757 714.29059483 -465.63213562 715.58276728 -468.33984375 716.8671875 C-470.351066 717.83496535 -472.36212912 718.80307397 -474.37304688 719.77148438 C-477.51586171 721.27866466 -480.66015756 722.7825466 -483.80737305 724.28051758 C-486.86429086 725.73787709 -489.91486774 727.20786774 -492.96484375 728.6796875 C-493.90858353 729.12458023 -494.8523233 729.56947296 -495.82466125 730.02784729 C-496.69954697 730.45186325 -497.57443268 730.87587921 -498.47583008 731.31274414 C-499.24445877 731.67960831 -500.01308746 732.04647247 -500.80500793 732.42445374 C-504.17905585 734.57176093 -505.57045214 736.95745016 -506.8203125 740.70703125 C-506.78978429 742.60852783 -506.69324817 744.50928152 -506.55859375 746.40625 C-506.49220703 747.53353516 -506.42582031 748.66082031 -506.35742188 749.82226562 C-506.20885714 752.18509082 -506.04759903 754.54715549 -505.87304688 756.90820312 C-505.47803297 764.0713934 -505.81326088 768.72990359 -509.8203125 774.70703125 C-510.50130005 775.8194519 -510.50130005 775.8194519 -511.19604492 776.9543457 C-512.67287746 779.34086965 -514.20601454 781.68117902 -515.7578125 784.01953125 C-516.27021484 784.81681641 -516.78261719 785.61410156 -517.31054688 786.43554688 C-520.51394742 791.27524605 -523.09399814 794.92936565 -529.06640625 796.17578125 C-529.78957031 796.18609375 -530.51273438 796.19640625 -531.2578125 796.20703125 C-531.97839844 796.23796875 -532.69898438 796.26890625 -533.44140625 796.30078125 C-537.09476624 795.38894099 -539.41944287 793.51283795 -541.8203125 790.70703125 C-543.9046512 786.80504461 -545.43758803 782.72374289 -547 778.58984375 C-547.71486407 776.7634098 -548.42976253 774.93698834 -549.14678001 773.1113987 C-549.63937326 771.85417715 -550.12964783 770.5960448 -550.61767006 769.33704185 C-552.67528942 764.03113171 -554.85564569 758.78128599 -557.06060791 753.53485107 C-558.93912658 749.03505166 -560.75621886 744.51163665 -562.56738281 739.984375 C-563.48482056 737.71906451 -564.42136307 735.46139651 -565.37695312 733.21191406 C-572.8071162 715.66310893 -575.11346545 700.21539472 -574.87158203 681.28985596 C-574.79463068 674.65810873 -574.84993089 668.02783103 -574.89648438 661.39599609 C-574.98138337 648.20961161 -575.00626566 635.0239171 -575.00570679 621.83728254 C-575.00567657 621.12253692 -575.00564636 620.4077913 -575.00561523 619.67138672 C-575.00555481 618.9553706 -575.00549438 618.23935449 -575.00543213 617.50164092 C-575.00576075 611.6459943 -575.01742591 605.79040723 -575.0313589 599.93477941 C-575.04448613 594.20826444 -575.0497974 588.4817758 -575.04915982 582.75524592 C-575.04890761 579.36771796 -575.05160702 575.98026307 -575.06233788 572.59275055 C-575.0721946 568.83422611 -575.06924036 565.075911 -575.06323242 561.31738281 C-575.07166168 559.68394173 -575.07166168 559.68394173 -575.08026123 558.01750183 C-575.03224692 546.12661141 -572.75691899 534.79289907 -570.10571289 523.24291992 C-569.70749832 521.48303993 -569.70749832 521.48303993 -569.30123901 519.68760681 C-568.57870089 516.49855022 -567.85219622 513.31043046 -567.12382817 510.12270141 C-566.34765909 506.72131495 -565.57666883 503.31875445 -564.80503845 499.91633606 C-563.33439762 493.43532867 -561.85909864 486.95539093 -560.38213962 480.47582084 C-559.22948087 475.41819116 -558.07910518 470.36004724 -556.93041992 465.30151367 C-556.77051154 464.59737961 -556.61060315 463.89324554 -556.44584906 463.16777408 C-555.64235303 459.62937983 -554.83919445 456.09090924 -554.0363369 452.55237007 C-552.45052595 445.56564451 -550.85814399 438.58051969 -549.25234985 431.59835815 C-548.62486481 428.86697048 -547.99798877 426.13544375 -547.37158203 423.40380859 C-547.21877816 422.73774715 -547.0659743 422.07168571 -546.90854001 421.38544059 C-545.03635202 413.21130372 -543.23445557 405.02572387 -541.53033924 396.81472683 C-540.60882286 392.38010182 -539.66167308 387.95112514 -538.7128582 383.52227211 C-538.29073603 381.51306961 -537.88201041 379.50099279 -537.48854256 377.48598289 C-534.8911928 364.19137992 -531.01739458 355.66843388 -521.8203125 345.70703125 C-520.54176346 344.10442955 -519.27572374 342.4915552 -518.03515625 340.859375 C-517.49052734 340.15941406 -516.94589844 339.45945312 -516.38476562 338.73828125 C-515.84787109 338.04734375 -515.31097656 337.35640625 -514.7578125 336.64453125 C-513.86932617 335.50177734 -513.86932617 335.50177734 -512.96289062 334.3359375 C-508.77226082 328.94214746 -504.60458784 323.53128465 -500.4453125 318.11328125 C-497.25403259 313.96461736 -494.03607114 309.83672878 -490.8203125 305.70703125 C-485.12654716 298.39422555 -479.46202603 291.06006455 -473.8203125 283.70703125 C-467.57512559 275.56747097 -461.29641481 267.45527007 -454.99316406 259.3605957 C-451.58851346 254.98642414 -448.1956539 250.60385755 -444.8203125 246.20703125 C-440.24182599 240.24295014 -435.62569142 234.30866381 -431.00537109 228.37695312 C-427.88615756 224.37031099 -424.77570562 220.35750098 -421.6875 216.3269043 C-420.47753028 214.74904481 -419.26227247 213.17524489 -418.046875 211.6015625 C-416.61086365 209.73474775 -415.18791449 207.85777645 -413.78125 205.96875 C-406.03849607 195.8044575 -395.73661159 189.15626435 -385.37890625 181.91015625 C-380.85022973 178.73765574 -376.36162157 175.51193119 -371.8828125 172.26953125 C-371.13999023 171.73199219 -370.39716797 171.19445312 -369.63183594 170.640625 C-368.12235846 169.54780243 -366.61308168 168.45470259 -365.10400391 167.36132812 C-361.26152138 164.57784923 -357.4162128 161.79828526 -353.5703125 159.01953125 C-352.4412146 158.20367554 -352.4412146 158.20367554 -351.28930664 157.37133789 C-346.25401697 153.73556498 -341.20525264 150.11927041 -336.14746094 146.51489258 C-331.35763687 143.09839873 -326.58777381 139.6546417 -321.8203125 136.20703125 C-315.94634579 131.9592466 -310.06113186 127.72827264 -304.15722656 123.5222168 C-298.54692413 119.52120232 -292.96452999 115.48170512 -287.38671875 111.43554688 C-285.94648524 110.39275485 -284.50315087 109.35423329 -283.05688477 108.31982422 C-281.52655706 107.21630443 -280.00926755 106.09453804 -278.50366211 104.95751953 C-272.0177072 100.17495333 -265.31083528 97.0265919 -257.8828125 93.95703125 C-255.90397806 93.12208041 -253.92722742 92.28232136 -251.95057678 91.44221497 C-250.52834869 90.83780949 -249.10559548 90.23463838 -247.68235779 89.63261414 C-239.32585035 86.09171143 -231.03237268 82.40933784 -222.73629761 78.72961426 C-218.12370364 76.68392907 -213.50910653 74.64277352 -208.89453125 72.6015625 C-207.97126541 72.19308075 -207.04799957 71.784599 -206.09675598 71.36373901 C-195.67234058 66.75363693 -185.2336391 62.17618667 -174.79443359 57.59970093 C-165.08132357 53.34107233 -155.37323048 49.07153108 -145.67578125 44.77734375 C-144.74021393 44.36321228 -143.80464661 43.94908081 -142.84072876 43.5223999 C-138.3876316 41.55098496 -133.93529149 39.57789574 -129.484375 37.6015625 C-126.11274003 36.10488836 -122.73526972 34.6223776 -119.35449219 33.14648438 C-115.4209953 31.42625686 -111.51877821 29.64759528 -107.62207031 27.84570312 C-89.10099446 19.42137308 -70.26283018 13.8250831 -50.64056396 8.61181641 C-47.33739319 7.72729912 -44.04129534 6.81784391 -40.7449398 5.90831375 C-37.52865404 5.02340396 -34.30899014 4.15136845 -31.0880928 3.28340912 C-29.57151842 2.87366757 -28.05581668 2.46067985 -26.5410881 2.04416656 C-7.13043899 -3.26894087 -7.13043899 -3.26894087 0 0 Z " fill="#EAAC6C" transform="translate(574.8203125,1.29296875)"/>
<path d="M0 0 C0.79921875 0.03222656 1.5984375 0.06445312 2.421875 0.09765625 C9.91724251 2.32349052 15.80244509 9.14656463 21.3125 14.4375 C22.65613432 15.72023672 24.00117402 17.00150304 25.34765625 18.28125 C25.93039307 18.84005859 26.51312988 19.39886719 27.11352539 19.97460938 C29.07351179 21.91851012 29.07351179 21.91851012 30.96037292 22.92430115 C34.53085578 25.24537566 36.01163158 27.10201999 37.19554138 31.25161743 C37.98130407 35.58876651 38.40950652 39.96520532 38.85546875 44.34765625 C39.04714615 46.00315077 39.24213428 47.65826492 39.44023132 49.31300354 C39.85281102 52.77844982 40.25125962 56.2451166 40.64105225 59.7131958 C41.49180124 67.15840938 42.55090262 74.57383571 43.58862686 81.99476242 C44.27415664 86.95359302 44.92157839 91.91751246 45.57153511 96.88110924 C46.11594007 101.02978131 46.67098086 105.17637942 47.25219727 109.32006836 C50.97709838 135.97723347 51.9266488 161.95439565 51.29872751 188.84772253 C51.24676582 191.0762044 51.1959929 193.30471169 51.14527512 195.5332222 C50.5566941 221.21881772 49.83368216 246.90028118 49.07963568 272.58147377 C48.83824164 280.82102956 48.60543308 289.06081164 48.37464482 297.30067044 C48.12286989 306.28383241 47.8656443 315.26683003 47.60578728 324.24976158 C47.49600595 328.04755663 47.38810144 331.8453981 47.28170967 335.64328957 C47.15728993 340.07540889 47.02810566 344.50736361 46.8951149 348.93923378 C46.84707593 350.56587389 46.80070585 352.19256422 46.75608253 353.81930161 C46.69522062 356.02807613 46.62844891 358.23659188 46.56007385 360.44514465 C46.52412393 361.68236173 46.488174 362.9195788 46.45113468 364.1942873 C46.25 366.9375 46.25 366.9375 45.25 367.9375 C43.81756305 368.20488083 42.37415954 368.41387187 40.92871094 368.59838867 C39.99677917 368.71930878 39.06484741 368.84022888 38.10467529 368.96481323 C37.0749762 369.09372955 36.0452771 369.22264587 34.984375 369.35546875 C33.90810852 369.49324738 32.83184204 369.631026 31.72296143 369.77297974 C28.14924064 370.22852628 24.5746831 370.6770716 21 371.125 C19.78070801 371.27923431 18.56141602 371.43346863 17.30517578 371.59237671 C-3.56761168 374.23197198 -24.46057734 376.67143001 -45.37207031 378.9831543 C-47.45639567 379.21389035 -49.54070607 379.44476151 -51.625 379.67578125 C-52.60681244 379.78450058 -53.58862488 379.89321991 -54.60018921 380.00523376 C-61.30348275 380.75523033 -67.98712157 381.60006099 -74.66552734 382.5456543 C-78.82298328 383.07380981 -82.98103012 383.35940645 -87.1640625 383.59375 C-89.72940012 383.80786271 -89.72940012 383.80786271 -91.81933594 384.87573242 C-95.89142076 386.35103206 -99.93916895 386.76214164 -104.2265625 387.26953125 C-105.16782486 387.38625183 -106.10908722 387.50297241 -107.07887268 387.62322998 C-110.17680532 388.00548133 -113.275843 388.37781685 -116.375 388.75 C-118.54473642 389.01571586 -120.7144135 389.28191676 -122.8840332 389.54858398 C-137.79689943 391.37356706 -152.72075242 393.10086375 -167.6472168 394.81033325 C-179.94392682 396.22141977 -192.21026332 397.77409359 -204.46942139 399.47872925 C-226.13432067 402.48093636 -247.85417865 405.06656041 -269.56298828 407.72753906 C-270.33037858 407.82160317 -271.09776888 407.91566729 -271.88841343 408.01258183 C-275.66092498 408.47487357 -279.4335084 408.93656585 -283.20622253 409.39720154 C-289.82177741 410.20558726 -296.43621735 411.02059965 -303.04760742 411.86254883 C-304.70006721 412.07244949 -304.70006721 412.07244949 -306.38591003 412.28659058 C-308.3771073 412.54044054 -310.36803292 412.7964365 -312.3585968 413.0552063 C-330.58201204 415.37766343 -330.58201204 415.37766343 -335.484375 412.12109375 C-338.57998193 409.13756914 -339.5572559 405.95451382 -340.75 401.9375 C-341.09160156 400.83148438 -341.43320312 399.72546875 -341.78515625 398.5859375 C-347.18762114 380.50026651 -347.18762114 380.50026651 -343.75 372.9375 C-337.86365062 366.48860201 -330.10608161 362.24047568 -322.6875 357.8125 C-318.36042579 355.21103555 -314.04758389 352.58744556 -309.75 349.9375 C-309.00379395 349.48922852 -308.25758789 349.04095703 -307.48876953 348.57910156 C-303.03773624 345.71613712 -301.18908525 343.01533693 -299.75 337.9375 C-299.6689465 334.50714145 -299.6689465 334.50714145 -300.3125 330.9375 C-300.40966309 330.2681543 -300.50682617 329.59880859 -300.60693359 328.90917969 C-301.39612407 323.65498778 -302.37967989 318.43369932 -303.32983398 313.20678711 C-307.44866669 290.39550004 -307.44866669 290.39550004 -304 283.375 C-300.04693161 279.09250925 -297.12750748 277.54058661 -291.375 276.40234375 C-289.52648437 276.02432617 -289.52648437 276.02432617 -287.640625 275.63867188 C-285.71476562 275.2606543 -285.71476562 275.2606543 -283.75 274.875 C-281.20733713 274.36825444 -278.66561928 273.85673753 -276.125 273.33984375 C-274.43503906 273.00714478 -274.43503906 273.00714478 -272.7109375 272.66772461 C-268.79570196 271.7021516 -266.50112002 270.93899336 -264.0625 267.6875 C-261.27163251 261.83996812 -261.6040925 255.57186239 -261.57421875 249.2265625 C-261.5510241 247.32290557 -261.52690691 245.41925969 -261.50195312 243.515625 C-261.46686752 240.53800994 -261.43749236 237.56080441 -261.42407227 234.58300781 C-261.40852615 231.69286597 -261.36828603 228.80389238 -261.32421875 225.9140625 C-261.32612717 225.0336026 -261.32803558 224.1531427 -261.33000183 223.2460022 C-261.21528218 217.39610584 -260.23929738 212.74129989 -256.75 207.9375 C-253.33663621 205.22466631 -249.69559019 204.1550572 -245.53125 202.96484375 C-244.35175781 202.62259766 -243.17226563 202.28035156 -241.95703125 201.92773438 C-240.73371094 201.58033203 -239.51039063 201.23292969 -238.25 200.875 C-235.82230682 200.17790159 -233.3951992 199.47875994 -230.96875 198.77734375 C-229.89560547 198.47175537 -228.82246094 198.16616699 -227.71679688 197.85131836 C-222.51609835 196.57847049 -222.51609835 196.57847049 -218.61206055 193.29858398 C-215.84949178 184.74428726 -216.43829777 175.9364297 -216.66210938 167.04101562 C-216.61831924 157.37312659 -214.51078509 152.73338227 -207.75 145.9375 C-206.61385052 144.62040994 -205.48677693 143.29540852 -204.37109375 141.9609375 C-203.31189383 140.74305112 -202.25073033 139.52686937 -201.1875 138.3125 C-200.66220703 137.70921875 -200.13691406 137.1059375 -199.59570312 136.484375 C-198.55895889 135.29446098 -197.51671713 134.10930574 -196.46803284 132.92990112 C-195.34956296 131.63281263 -194.26729204 130.30331254 -193.22996521 128.94046021 C-188.87161074 123.40905285 -185.14721401 121.39319636 -178.4140625 119.65625 C-176.60880316 119.11910564 -174.80413237 118.57998 -173 118.0390625 C-170.19305604 117.22966827 -167.38404016 116.43991301 -164.56152344 115.68652344 C-151.64888467 112.40125645 -151.64888467 112.40125645 -142.47084045 103.39910889 C-141.03071426 100.64805415 -139.76555162 97.86056637 -138.59643555 94.984375 C-137.2953861 91.83813946 -135.72066591 88.85794556 -134.16796875 85.828125 C-132.52821282 82.47416782 -130.90215142 79.11404841 -129.28320312 75.75 C-128.48366211 74.11804688 -128.48366211 74.11804688 -127.66796875 72.453125 C-127.20156982 71.48665039 -126.7351709 70.52017578 -126.25463867 69.52441406 C-123.92604584 65.52088175 -122.01368899 63.30665036 -117.52734375 61.99609375 C-116.26019531 61.79113281 -114.99304688 61.58617187 -113.6875 61.375 C-112.99865723 61.25769531 -112.30981445 61.14039063 -111.60009766 61.01953125 C-107.63621316 60.35490669 -103.6600627 59.77508722 -99.68359375 59.19140625 C-98.84127197 59.06515869 -97.9989502 58.93891113 -97.13110352 58.80883789 C-95.49645511 58.56662647 -93.86021791 58.33483999 -92.22241211 58.11499023 C-86.75721322 57.31944909 -81.92226426 56.54626964 -78.19970703 52.07568359 C-76.51497388 49.71870433 -74.93638416 47.31534926 -73.375 44.875 C-72.23319501 43.15053553 -71.08868094 41.42786161 -69.94140625 39.70703125 C-69.39371582 38.88154785 -68.84602539 38.05606445 -68.28173828 37.20556641 C-57.74398037 21.60216012 -57.74398037 21.60216012 -49.75 18.9375 C-46.06314676 18.97761413 -42.38760493 19.06022685 -38.70507812 19.24023438 C-32.8699418 19.37163444 -28.57183117 18.31491812 -23.75 14.9375 C-21.42672865 12.57838636 -21.42672865 12.57838636 -19.6875 9.9375 C-14.55315482 3.08834405 -8.75548069 -0.54373208 0 0 Z " fill="#E9AC6B" transform="translate(647.75,66.0625)"/>
<path d="M0 0 C-1.90593112 7.37628663 -4.14075787 14.54201868 -6.74609375 21.69921875 C-7.10907059 22.70742676 -7.47204742 23.71563477 -7.84602356 24.75439453 C-9.03940067 28.06680733 -10.23852661 31.37710923 -11.4375 34.6875 C-12.28467906 37.03668521 -13.1313488 39.38605414 -13.97753906 41.7355957 C-15.30082808 45.40973157 -16.62440953 49.08375894 -17.94949341 52.75724792 C-22.32079295 64.87686254 -26.65635433 77.00913008 -30.98565674 89.14379883 C-32.25476539 92.70085643 -33.52450088 96.25768966 -34.79443359 99.81445312 C-37.87359215 108.43854939 -40.95184408 117.06296915 -44.02978516 125.6875 C-45.87372924 130.85427171 -47.71797997 136.02093387 -49.5625 141.1875 C-49.85726227 142.01320496 -50.15202454 142.83890991 -50.45571899 143.68963623 C-55.36180842 157.43123628 -60.28613131 171.16626256 -65.21334839 184.90029907 C-65.61731842 186.02632538 -66.02128845 187.15235168 -66.4375 188.3125 C-67.0433342 190.00117691 -67.0433342 190.00117691 -67.66140747 191.72396851 C-73.13179046 206.97410792 -78.57962845 222.23201694 -84 237.5 C-89.67214569 253.47551341 -95.36851023 269.44224334 -101.0859375 285.40161133 C-101.93944159 287.78414861 -102.79263606 290.16679683 -103.64550781 292.54956055 C-104.83300468 295.86672572 -106.02176632 299.18343474 -107.2109375 302.5 C-107.56537933 303.49052368 -107.91982117 304.48104736 -108.28500366 305.50158691 C-108.61424835 306.41887573 -108.94349304 307.33616455 -109.28271484 308.28125 C-109.5675473 309.07595703 -109.85237976 309.87066406 -110.14584351 310.68945312 C-111.05357859 313.14493346 -112.01769214 315.57349709 -113 318 C-127.11039304 312.28393446 -141.05369509 306.2422072 -154.9375 300 C-168.37023867 293.96138759 -181.82320537 287.97380295 -195.3125 282.0625 C-196.16256622 281.6898703 -197.01263245 281.3172406 -197.88845825 280.93331909 C-202.20373377 279.04189878 -206.51944019 277.15146462 -210.83544922 275.26171875 C-238.9453603 262.95322913 -267.03772811 250.60482855 -295.09326172 238.17285156 C-298.26299007 236.76849326 -301.43382676 235.36669766 -304.60595703 233.96777344 C-308.05478585 232.44681636 -311.50132546 230.9208046 -314.94592285 229.39028931 C-316.74585509 228.59205567 -318.54817764 227.79921863 -320.35058594 227.0065918 C-334.86278442 220.53881763 -334.86278442 220.53881763 -338 213 C-338.67241464 209.95363742 -339.03814345 206.89514762 -339.38671875 203.796875 C-339.49345413 202.91904358 -339.60018951 202.04121216 -339.7101593 201.13677979 C-339.9329427 199.28501546 -340.15030294 197.43259153 -340.36254883 195.57958984 C-340.68504315 192.7713936 -341.02563139 189.96585102 -341.36914062 187.16015625 C-341.58441268 185.35169065 -341.79863891 183.5431002 -342.01171875 181.734375 C-342.11167648 180.90798523 -342.21163422 180.08159546 -342.31462097 179.23016357 C-343.9897194 164.39616276 -343.9897194 164.39616276 -341.8125 159.125 C-337.14848959 153.65684986 -331.47447266 151.203003 -325.01953125 148.41015625 C-323.56748543 147.77055214 -323.56748543 147.77055214 -322.08610535 147.11802673 C-318.9979572 145.75909863 -315.90551216 144.41031589 -312.8125 143.0625 C-309.73812806 141.71654117 -306.66473444 140.36840874 -303.592453 139.01768494 C-301.68491199 138.17969786 -299.77606731 137.3446695 -297.86567688 136.51319885 C-293.36466006 134.54217573 -288.89599819 132.51439113 -284.47143555 130.37670898 C-283.66473923 129.98716537 -282.85804291 129.59762177 -282.02690125 129.1962738 C-279.73983263 128.00931383 -279.73983263 128.00931383 -277.8125 125.25 C-275.98887994 117.95551977 -278.50117459 110.48267652 -280.5390625 103.43359375 C-281.04211216 101.63098364 -281.54470263 99.82824533 -282.046875 98.02539062 C-282.8355627 95.22392667 -283.62887871 92.42396565 -284.43066406 89.6262207 C-285.20915854 86.8988632 -285.96893985 84.16681102 -286.7265625 81.43359375 C-287.0905162 80.19264198 -287.0905162 80.19264198 -287.46182251 78.92662048 C-289.07573347 73.0442501 -289.8849724 67.59320202 -286.91943359 61.94018555 C-282.57393925 57.29906384 -277.76624625 53.53966941 -272.625 49.8125 C-270.84747128 48.50415752 -269.07013025 47.19555999 -267.29296875 45.88671875 C-266.40786621 45.23880371 -265.52276367 44.59088867 -264.61083984 43.92333984 C-262.1369947 42.10092054 -259.68363898 40.25493923 -257.23828125 38.39453125 C-256.14555908 37.56441528 -256.14555908 37.56441528 -255.03076172 36.7175293 C-253.66477094 35.67829932 -252.30043254 34.63689276 -250.93798828 33.59301758 C-245.35228532 29.36869136 -241.0291946 28.77190542 -234.2109375 28.23828125 C-223.7643306 27.35026708 -213.37528196 26.11346974 -202.9765625 24.79296875 C-201.7639613 24.63902617 -201.7639613 24.63902617 -200.5268631 24.48197365 C-195.43604803 23.83427181 -190.34601117 23.18059558 -185.25613403 22.52556992 C-180.8072031 21.95393438 -176.35768976 21.38687115 -171.90820312 20.81958008 C-166.64855632 20.14878321 -161.38894138 19.47774638 -156.12957764 18.80473328 C-143.92253695 17.2427585 -131.7129357 15.7027417 -119.5 14.1875 C-110.49076527 13.06867324 -101.48338408 11.93824654 -92.48046875 10.76953125 C-73.23906984 8.27362542 -53.98855096 5.90639143 -34.71166992 3.69921875 C-33.85835587 3.60144135 -33.00504181 3.50366394 -32.12586975 3.40292358 C-30.45967641 3.21203776 -28.79344795 3.0214583 -27.12718201 2.83120728 C-20.47182066 2.06660142 -13.82762448 1.22643937 -7.18530273 0.35620117 C-4 0 -4 0 0 0 Z " fill="#DB955C" transform="translate(557,451)"/>
<path d="M0 0 C0.99 0.495 0.99 0.495 2 1 C0.03647112 4.32034391 -1.92836897 7.6399007 -3.89526367 10.95825195 C-5.60340759 13.84011989 -7.30734839 16.72442156 -9.0090332 19.61010742 C-13.2561796 26.79695729 -17.55579587 33.93526748 -22.046875 40.97265625 C-23.21917661 42.82879673 -24.38999403 44.68586637 -25.56057739 46.54309082 C-26.30400033 47.71035764 -27.05619557 48.87208969 -27.81759644 50.02770996 C-33.57689878 58.77314563 -35.47201466 64.66059937 -33.40893555 74.94702148 C-32.67855395 78.01017516 -31.86046185 81.03344172 -31 84.0625 C-25.98315737 101.79093712 -25.98315737 101.79093712 -29.4375 109 C-34.05266662 114.40312189 -38.77491077 119.6880937 -43.703125 124.80859375 C-45.02570313 126.20271484 -45.02570313 126.20271484 -46.375 127.625 C-47.59316406 128.88183594 -47.59316406 128.88183594 -48.8359375 130.1640625 C-54.38834201 137.44031823 -54.23898225 143.58670106 -53.1875 152.4375 C-52.97560479 154.56853238 -52.76860144 156.70005665 -52.56640625 158.83203125 C-52.46602051 159.87568848 -52.36563477 160.9193457 -52.26220703 161.99462891 C-51.89474705 166.20639089 -51.68831116 170.3983849 -51.625 174.625 C-51.59664062 175.91664063 -51.56828125 177.20828125 -51.5390625 178.5390625 C-52.19572741 183.46961425 -54.26029427 186.45243044 -57.9453125 189.73046875 C-65.75763533 194.95268455 -73.77681199 199.8336697 -81.83105469 204.67211914 C-83.29269079 205.56696817 -84.74127082 206.48345556 -86.17675781 207.41967773 C-86.86866211 207.87028564 -87.56056641 208.32089355 -88.2734375 208.78515625 C-89.18875244 209.39435913 -89.18875244 209.39435913 -90.12255859 210.01586914 C-93.33469041 211.6996277 -96.41139484 211.80775329 -100 212 C-99.67566483 212.55636642 -99.35132965 213.11273285 -99.01716614 213.68595886 C-97.8578891 216.32330065 -97.74044855 218.15237768 -97.7253418 221.0246582 C-97.71580978 222.02282059 -97.70627777 223.02098297 -97.69645691 224.0493927 C-97.69782402 225.65883003 -97.69782402 225.65883003 -97.69921875 227.30078125 C-97.69493362 228.41051804 -97.6906485 229.52025482 -97.68623352 230.66362 C-97.68049157 233.01133543 -97.67998896 235.35906866 -97.68432617 237.70678711 C-97.68747893 241.28856012 -97.66404933 244.8695014 -97.63867188 248.45117188 C-97.63639808 250.73437396 -97.63569576 253.01757826 -97.63671875 255.30078125 C-97.627509 256.36766678 -97.61829926 257.43455231 -97.60881042 258.5337677 C-97.64528501 264.43418852 -97.77110912 268.96828845 -101 274 C-103.4728319 276.07605143 -106.13066034 277.53617717 -109 279 C-109.80176666 279.41122101 -110.60353333 279.82244202 -111.42959595 280.24612427 C-114.11153507 281.58356358 -116.81182312 282.87573603 -119.51953125 284.16015625 C-121.5307535 285.1279341 -123.54181662 286.09604272 -125.55273438 287.06445312 C-128.69554921 288.57163341 -131.83984506 290.07551535 -134.98706055 291.57348633 C-138.04397836 293.03084584 -141.09455524 294.50083649 -144.14453125 295.97265625 C-145.08827103 296.41754898 -146.0320108 296.86244171 -147.00434875 297.32081604 C-147.87923447 297.744832 -148.75412018 298.16884796 -149.65551758 298.60571289 C-150.42414627 298.97257706 -151.19277496 299.33944122 -151.98469543 299.71742249 C-155.35874335 301.86472968 -156.75013964 304.25041891 -158 308 C-157.96947179 309.90149658 -157.87293567 311.80225027 -157.73828125 313.69921875 C-157.67189453 314.82650391 -157.60550781 315.95378906 -157.53710938 317.11523438 C-157.38854464 319.47805957 -157.22728653 321.84012424 -157.05273438 324.20117188 C-156.65772047 331.36436215 -156.99294838 336.02287234 -161 342 C-161.4539917 342.74161377 -161.9079834 343.48322754 -162.37573242 344.24731445 C-163.85256496 346.6338384 -165.38570204 348.97414777 -166.9375 351.3125 C-167.44990234 352.10978516 -167.96230469 352.90707031 -168.49023438 353.72851562 C-171.69363492 358.5682148 -174.27368564 362.2223344 -180.24609375 363.46875 C-180.96925781 363.4790625 -181.69242188 363.489375 -182.4375 363.5 C-183.51837891 363.54640625 -183.51837891 363.54640625 -184.62109375 363.59375 C-188.27445374 362.68190974 -190.59913037 360.8058067 -193 358 C-195.0843387 354.09801336 -196.61727553 350.01671164 -198.1796875 345.8828125 C-198.89455157 344.05637855 -199.60945003 342.22995709 -200.32646751 340.40436745 C-200.81906076 339.1471459 -201.30933533 337.88901355 -201.79735756 336.6300106 C-203.85497692 331.32410046 -206.03533319 326.07425474 -208.24029541 320.82781982 C-210.11881408 316.32802041 -211.93590636 311.8046054 -213.74707031 307.27734375 C-214.66450806 305.01203326 -215.60105057 302.75436526 -216.55664062 300.50488281 C-223.98268896 282.96579602 -226.30159251 267.52153494 -226.05450439 248.60546875 C-225.97418209 241.92869368 -226.02160647 235.25313901 -226.06005859 228.57617188 C-226.13619397 213.85023395 -226.14068585 199.12491408 -226.12857783 184.39881706 C-226.12418985 178.49113918 -226.12734671 172.58348243 -226.1321975 166.67580587 C-226.13673642 160.91373301 -226.13737744 155.15166928 -226.13475883 149.38959521 C-226.13320928 145.974928 -226.13296715 142.56027516 -226.13629532 139.1456089 C-226.13883076 135.36894257 -226.13497187 131.59233572 -226.12939453 127.81567383 C-226.13141876 126.70154617 -226.13344299 125.58741852 -226.13552856 124.43952942 C-226.10573769 113.56671217 -226.10573769 113.56671217 -225 110 C-223.20602417 108.45722961 -223.20602417 108.45722961 -220.82373047 107.32543945 C-219.92708679 106.88594971 -219.03044312 106.44645996 -218.10662842 105.99365234 C-217.12011292 105.53812988 -216.13359741 105.08260742 -215.1171875 104.61328125 C-214.09296692 104.11868408 -213.06874634 103.62408691 -212.01348877 103.11450195 C-208.64355556 101.49295606 -205.25966569 99.90303393 -201.875 98.3125 C-199.52742508 97.18930172 -197.18091505 96.06387515 -194.83544922 94.9362793 C-190.10821474 92.66685779 -185.37589859 90.40864324 -180.63867188 88.16015625 C-172.54139236 84.31306652 -164.48533872 80.38375666 -156.43395996 76.44177246 C-152.53181411 74.53330028 -148.62494704 72.63453733 -144.71875 70.734375 C-134.01424133 65.52390315 -123.31957893 60.29331408 -112.625 55.0625 C-98.25389883 48.03365272 -83.87957467 41.01149635 -69.5 34 C-54.39192418 26.63299148 -39.28825662 19.25699991 -24.1875 11.875 C-23.19685547 11.3907959 -22.20621094 10.9065918 -21.18554688 10.40771484 C-18.38791966 9.04024589 -15.59041995 7.67251648 -12.79296875 6.3046875 C-11.95956467 5.89733368 -11.12616058 5.48997986 -10.26750183 5.07028198 C-9.49755386 4.69372467 -8.7276059 4.31716736 -7.93432617 3.92919922 C-7.26745285 3.6031369 -6.60057953 3.27707458 -5.91349792 2.94113159 C-4.54970946 2.27036817 -3.20638621 1.55730745 -1.87910461 0.81692505 C-1.25900009 0.54733978 -0.63889557 0.27775452 0 0 Z " fill="#DC965C" transform="translate(226,434)"/>
<path d="M0 0 C1.19882812 0.04833984 1.19882812 0.04833984 2.421875 0.09765625 C9.91724251 2.32349052 15.80244509 9.14656463 21.3125 14.4375 C22.65613432 15.72023672 24.00117402 17.00150304 25.34765625 18.28125 C26.22176147 19.11946289 26.22176147 19.11946289 27.11352539 19.97460938 C29.07436299 21.91786526 29.07436299 21.91786526 30.96037292 22.92938232 C34.50642917 25.2420692 36.00622047 27.09266094 37.19554138 31.21435547 C37.90427872 35.53803383 38.40969271 39.84630012 38.85546875 44.203125 C39.047314 45.8508859 39.24230384 47.49828333 39.44023132 49.14532471 C39.85494987 52.62656677 40.25363119 56.10912333 40.64105225 59.59350586 C41.23068133 64.84376674 41.89071436 70.08329576 42.57275391 75.32226562 C42.74009191 76.60869083 42.74009191 76.60869083 42.91081047 77.92110443 C43.13667689 79.6567477 43.36261572 81.39238155 43.58862686 83.12800598 C44.26407737 88.34957013 44.91640075 93.57405091 45.57153511 98.79819489 C46.24165766 104.14055544 46.9173869 109.4821618 47.59754658 114.82325363 C48.04307754 118.33162405 48.48365187 121.84060413 48.92287254 125.34976959 C49.13033389 127.00047263 49.3396143 128.65094824 49.55086708 130.30117035 C50.56022145 138.19811623 51.54232765 145.95667126 51.25 153.9375 C36.72935682 154.12173209 22.20851702 154.28563471 7.6875 154.4375 C6.55274105 154.44937725 5.4179821 154.4612545 4.24883652 154.47349167 C-44.4798883 154.97677409 -93.20660155 155.02353261 -141.9375 155 C-142.84192793 154.99957577 -143.74635587 154.99915154 -144.67819071 154.99871445 C-168.03547075 154.98757377 -191.3927364 154.96736989 -214.75 154.9375 C-213.79785033 153.65705128 -212.84418839 152.377727 -211.88989258 151.09887695 C-211.35898514 150.38633255 -210.8280777 149.67378815 -210.28108215 148.93965149 C-208.45175296 146.54749104 -206.48784447 144.32979603 -204.4375 142.125 C-200.38011017 137.69813454 -196.60425218 133.10049444 -192.890625 128.3828125 C-188.14867738 122.96591614 -183.8126442 121.07359352 -177.046875 119.265625 C-175.32593485 118.76214019 -173.60590772 118.25552604 -171.88671875 117.74609375 C-169.20325884 116.96005934 -166.52050265 116.19291389 -163.81689453 115.47900391 C-151.32825337 112.25559767 -151.32825337 112.25559767 -142.52989197 103.41503906 C-141.08147711 100.65883766 -139.799949 97.86540734 -138.61053467 94.98840332 C-137.2927259 91.8476834 -135.71925416 88.86020239 -134.16796875 85.828125 C-132.52821282 82.47416782 -130.90215142 79.11404841 -129.28320312 75.75 C-128.75017578 74.66203125 -128.21714844 73.5740625 -127.66796875 72.453125 C-127.20156982 71.48665039 -126.7351709 70.52017578 -126.25463867 69.52441406 C-123.92604584 65.52088175 -122.01368899 63.30665036 -117.52734375 61.99609375 C-116.26019531 61.79113281 -114.99304688 61.58617187 -113.6875 61.375 C-112.99865723 61.25769531 -112.30981445 61.14039063 -111.60009766 61.01953125 C-107.63621316 60.35490669 -103.6600627 59.77508722 -99.68359375 59.19140625 C-98.84127197 59.06515869 -97.9989502 58.93891113 -97.13110352 58.80883789 C-95.49645511 58.56662647 -93.86021791 58.33483999 -92.22241211 58.11499023 C-86.75721322 57.31944909 -81.92226426 56.54626964 -78.19970703 52.07568359 C-76.51497388 49.71870433 -74.93638416 47.31534926 -73.375 44.875 C-72.23319501 43.15053553 -71.08868094 41.42786161 -69.94140625 39.70703125 C-69.39371582 38.88154785 -68.84602539 38.05606445 -68.28173828 37.20556641 C-57.74398037 21.60216012 -57.74398037 21.60216012 -49.75 18.9375 C-46.06314676 18.97761413 -42.38760493 19.06022685 -38.70507812 19.24023438 C-32.8699418 19.37163444 -28.57183117 18.31491812 -23.75 14.9375 C-21.42672865 12.57838636 -21.42672865 12.57838636 -19.6875 9.9375 C-14.55315482 3.08834405 -8.75548069 -0.54373208 0 0 Z " fill="#F3C396" transform="translate(647.75,66.0625)"/>
<path d="M0 0 C0.60023483 0.06638672 1.20046967 0.13277344 1.81889343 0.20117188 C10.43962522 1.0759507 19.05168275 1.2974738 27.70703125 1.5 C29.32013384 1.54063905 30.93322678 1.58166269 32.54631042 1.62304688 C36.77750695 1.73086977 41.00878839 1.83481062 45.2401123 1.9375 C52.7708661 2.12047091 60.30149767 2.3081871 67.83203125 2.5 C68.6400758 2.52045883 69.44812035 2.54091766 70.28065109 2.56199646 C80.40211515 2.82053058 90.51289176 3.1555639 100.62562561 3.65905762 C111.04672736 4.17078618 121.47545568 4.34708157 131.90625 4.55224609 C143.95724656 4.79370908 155.96975648 5.24559203 168 6 C170.52093732 13.27451199 172.59070095 20.62122469 174.57421875 28.05859375 C174.90291458 29.28409439 175.23161041 30.50959503 175.57026672 31.77223206 C176.25986033 34.34609712 176.94836417 36.92022307 177.63500977 39.49487305 C178.51575713 42.7967531 179.40126291 46.09733535 180.28816509 49.3975668 C181.13597692 52.5547511 181.97994764 55.71296109 182.82421875 58.87109375 C183.14291428 60.05746933 183.4616098 61.24384491 183.78996277 62.46617126 C184.08059097 63.55813309 184.37121918 64.65009491 184.6706543 65.77514648 C185.05679146 67.22001686 185.05679146 67.22001686 185.45072937 68.69407654 C186 71 186 71 186 73 C181.58044809 75.22249944 177.15936403 77.44191619 172.73706055 79.65893555 C171.24481243 80.40751526 169.75292832 81.1568212 168.26147461 81.90698242 C158.23645374 86.94846691 148.15539128 91.85727956 138.0243988 96.6822052 C127.5915127 101.65748798 117.21816927 106.75214022 106.84667969 111.85388184 C101.03456959 114.71266155 95.22037738 117.5672008 89.40625 120.421875 C88.25133057 120.98900208 87.09641113 121.55612915 85.90649414 122.14044189 C75.94699932 127.02952263 65.97668973 131.89612036 56 136.75 C42.96344296 143.09272046 29.93539127 149.45252249 16.91323853 155.82476807 C9.47487215 159.46381005 2.03435265 163.0984463 -5.40631104 166.73278809 C-7.92792064 167.96478382 -10.44910679 169.19764237 -12.97021484 170.43066406 C-16.69792057 172.25332061 -20.42756348 174.07194653 -24.15893555 175.88708496 C-25.49912549 176.53976021 -26.8386575 177.19378837 -28.17749023 177.84924316 C-29.98503178 178.73388041 -31.79517192 179.61320235 -33.60546875 180.4921875 C-34.60731201 180.98058105 -35.60915527 181.46897461 -36.64135742 181.97216797 C-39 183 -39 183 -41 183 C-39.4795731 172.70009507 -37.1812391 162.61706145 -34.84375 152.48046875 C-34.42421545 150.64900406 -34.00500919 148.81746415 -33.58610535 146.9858551 C-32.692604 143.0821012 -31.79694111 139.17885232 -30.89950562 135.27600098 C-29.48922734 129.1427924 -28.08365424 123.00851188 -26.67895508 116.87402344 C-25.23380337 110.56380384 -23.7883686 104.25364998 -22.34126282 97.94387817 C-17.83483547 78.29382002 -13.35351192 58.6380798 -8.87841797 38.98086548 C-7.69803803 33.79597972 -6.51706635 28.61122887 -5.3359375 23.42651367 C-3.55704267 15.61773248 -1.77840309 7.8088932 0 0 Z " fill="#EAAC6B" transform="translate(42,361)"/>
<path d="M0 0 C0.33 0 0.66 0 1 0 C0.38293665 8.20650911 -0.74576636 16.26514562 -2.08203125 24.3828125 C-2.29205276 25.67766068 -2.50207428 26.97250885 -2.71846008 28.30659485 C-3.29187595 31.8407901 -3.87011676 35.37418001 -4.44937897 38.90742111 C-5.06565519 42.67101788 -5.67775722 46.435294 -6.29052734 50.19946289 C-7.45897548 57.37209329 -8.63197182 64.54397244 -9.80694199 71.71553707 C-10.72256729 77.30441689 -11.63647088 82.89357568 -12.54931641 88.48291016 C-17.98159938 121.73934064 -23.44989223 154.9886404 -29.14697266 188.20092773 C-31.1894777 200.12047787 -33.14898901 212.04915391 -35 224 C-47.23538444 224.049171 -59.45584546 223.92511981 -71.6875 223.625 C-72.99968506 223.5938208 -72.99968506 223.5938208 -74.33837891 223.56201172 C-91.56966056 223.14801937 -108.79175571 222.52136312 -126.01531982 221.86630249 C-143.66937759 221.19578824 -161.32044158 220.66595246 -178.984375 220.34179688 C-186.70127556 220.19194011 -194.32954207 219.93844834 -202 219 C-200.46058563 214.16184056 -197.68635174 210.84210233 -194.5 207 C-193.40784653 205.6596746 -192.31671683 204.3185144 -191.2265625 202.9765625 C-190.68161133 202.30786133 -190.13666016 201.63916016 -189.57519531 200.95019531 C-187.29503177 198.127203 -185.07875368 195.25781731 -182.875 192.375 C-182.46797852 191.84350342 -182.06095703 191.31200684 -181.64160156 190.7644043 C-180.42688759 189.17691712 -179.21343692 187.58846354 -178 186 C-171.75964356 177.86265814 -165.48149086 169.75589978 -159.18164062 161.66455078 C-154.09539103 155.12924698 -149.04107694 148.57020361 -144 142 C-137.75481309 133.86043972 -131.47610231 125.74823882 -125.17285156 117.65356445 C-121.76820096 113.27939289 -118.3753414 108.8968263 -115 104.5 C-110.42151349 98.53591889 -105.80537892 92.60163256 -101.18505859 86.66992188 C-98.06584506 82.66327974 -94.95539312 78.65046973 -91.8671875 74.61987305 C-90.65721778 73.04201356 -89.44195997 71.46821364 -88.2265625 69.89453125 C-86.79055115 68.0277165 -85.36760199 66.1507452 -83.9609375 64.26171875 C-76.21818357 54.09742625 -65.91629909 47.4492331 -55.55859375 40.203125 C-51.02991723 37.03062449 -46.54130907 33.80489994 -42.0625 30.5625 C-40.9482666 29.75619141 -40.9482666 29.75619141 -39.81152344 28.93359375 C-38.30204596 27.84077118 -36.79276918 26.74767134 -35.28369141 25.65429688 C-31.44120878 22.87081791 -27.59584532 20.09133025 -23.75 17.3125 C-23.00959473 16.77729736 -22.26918945 16.24209473 -21.50634766 15.69067383 C-16.07049511 11.76451289 -10.61871653 7.86113051 -5.14941406 3.98168945 C-2.45911795 2.1322128 -2.45911795 2.1322128 0 0 Z " fill="#F3C396" transform="translate(245,143)"/>
<path d="M0 0 C2.21925591 1.26073992 4.43762243 2.52300297 6.65551758 3.78613281 C7.58784588 4.31546921 7.58784588 4.31546921 8.53900909 4.85549927 C14.03177215 7.98636858 19.37604989 11.32083053 24.6875 14.75 C26.60008604 15.9755326 28.51284946 17.2007884 30.42578125 18.42578125 C31.36502441 19.0285791 32.30426758 19.63137695 33.27197266 20.25244141 C37.29613198 22.83029468 41.3337316 25.38657633 45.375 27.9375 C46.13385498 28.41670898 46.89270996 28.89591797 47.67456055 29.38964844 C55.13045531 34.09210862 62.60883433 38.75851756 70.08618164 43.42675781 C78.62978574 48.76283515 87.15031184 54.13458245 95.66162109 59.52197266 C98.13314687 61.08415861 100.60730714 62.64210484 103.08203125 64.19921875 C104.34793091 64.99646362 104.34793091 64.99646362 105.6394043 65.80981445 C107.23275401 66.81315057 108.82662043 67.81566687 110.42114258 68.81713867 C111.88022074 69.73665266 113.33659238 70.6604773 114.79003906 71.58886719 C116.34820562 72.58380783 117.91336196 73.5678432 119.48339844 74.54394531 C120.29067383 75.05795898 121.09794922 75.57197266 121.9296875 76.1015625 C122.66171387 76.56127441 123.39374023 77.02098633 124.14794922 77.49462891 C126.88583463 79.72001797 127.87515995 81.86504062 128.26069641 85.37007141 C128.2653038 86.24608505 128.26991119 87.12209869 128.2746582 88.0246582 C128.28419022 89.02282059 128.29372223 90.02098297 128.30354309 91.0493927 C128.30217598 92.65883003 128.30217598 92.65883003 128.30078125 94.30078125 C128.30506638 95.41051804 128.3093515 96.52025482 128.31376648 97.66362 C128.31950843 100.01133543 128.32001104 102.35906866 128.31567383 104.70678711 C128.31252107 108.28856012 128.33595067 111.8695014 128.36132812 115.45117188 C128.36360192 117.73437396 128.36430424 120.01757826 128.36328125 122.30078125 C128.372491 123.36766678 128.38170074 124.43455231 128.39118958 125.5337677 C128.35471499 131.43418852 128.22889088 135.96828845 125 141 C122.5271681 143.07605143 119.86933966 144.53617717 117 146 C116.19823334 146.41122101 115.39646667 146.82244202 114.57040405 147.24612427 C111.88846493 148.58356358 109.18817688 149.87573603 106.48046875 151.16015625 C104.4692465 152.1279341 102.45818338 153.09604272 100.44726562 154.06445312 C97.30445079 155.57163341 94.16015494 157.07551535 91.01293945 158.57348633 C87.95602164 160.03084584 84.90544476 161.50083649 81.85546875 162.97265625 C80.91172897 163.41754898 79.9679892 163.86244171 78.99565125 164.32081604 C78.12076553 164.744832 77.24587982 165.16884796 76.34448242 165.60571289 C75.57585373 165.97257706 74.80722504 166.33944122 74.01530457 166.71742249 C70.64125665 168.86472968 69.24986036 171.25041891 68 175 C68.03052821 176.90149658 68.12706433 178.80225027 68.26171875 180.69921875 C68.32810547 181.82650391 68.39449219 182.95378906 68.46289062 184.11523438 C68.61145536 186.47805957 68.77271347 188.84012424 68.94726562 191.20117188 C69.34227953 198.36436215 69.00705162 203.02287234 65 209 C64.5460083 209.74161377 64.0920166 210.48322754 63.62426758 211.24731445 C62.14743504 213.6338384 60.61429796 215.97414777 59.0625 218.3125 C58.55009766 219.10978516 58.03769531 219.90707031 57.50976562 220.72851562 C54.30636508 225.5682148 51.72631436 229.2223344 45.75390625 230.46875 C45.03074219 230.4790625 44.30757812 230.489375 43.5625 230.5 C42.48162109 230.54640625 42.48162109 230.54640625 41.37890625 230.59375 C37.72554626 229.68190974 35.40086963 227.8058067 33 225 C30.9156613 221.09801336 29.38272447 217.01671164 27.8203125 212.8828125 C27.10544843 211.05637855 26.39054997 209.22995709 25.67353249 207.40436745 C25.18093924 206.1471459 24.69066467 204.88901355 24.20264244 203.6300106 C22.14502308 198.32410046 19.96466681 193.07425474 17.75970459 187.82781982 C15.88118592 183.32802041 14.06409364 178.8046054 12.25292969 174.27734375 C11.33549194 172.01203326 10.39894943 169.75436526 9.44335938 167.50488281 C1.99658775 149.91685106 -0.32106262 134.17922957 -0.05773926 115.25964355 C0.02224792 109.19714083 -0.01276315 103.13602861 -0.04394531 97.07324219 C-0.10422626 83.62938847 -0.0928165 70.18617956 -0.06866455 56.74224854 C-0.05826702 50.3249139 -0.05383245 43.90757508 -0.04882812 37.49023438 C-0.03823831 24.99347891 -0.02126781 12.49674155 0 0 Z " fill="#CD8544" transform="translate(0,567)"/>
<path d="M0 0 C0.76054688 0.62519531 1.52109375 1.25039063 2.3046875 1.89453125 C3.21347656 2.62027344 4.12226562 3.34601562 5.05859375 4.09375 C5.5498877 4.50544434 6.04118164 4.91713867 6.54736328 5.34130859 C8.37335266 6.86906579 10.22552534 8.36105218 12.08203125 9.8515625 C14.84985073 12.0787616 17.60380706 14.32147056 20.34765625 16.578125 C22.66069021 18.47695253 24.98678647 20.35076288 27.35546875 22.1796875 C28.69158203 23.21416016 28.69158203 23.21416016 30.0546875 24.26953125 C30.81523438 24.84832031 31.57578125 25.42710938 32.359375 26.0234375 C35.0113761 28.47625397 36.00957627 30.50834051 36.515625 34.07421875 C36.60469104 39.79225882 36.17355407 43.26940173 32.1796875 47.70703125 C28.84855115 50.2341002 25.20257138 50.19833609 21.1796875 49.70703125 C15.81161321 48.23360742 10.58536879 46.31876352 5.33984375 44.46289062 C-2.12819549 41.93021225 -6.31600943 41.20559689 -13.8203125 43.70703125 C-14.5351283 45.01518284 -15.19580942 46.35343673 -15.8203125 47.70703125 C-16.82288877 49.04633393 -17.86526011 50.35641611 -18.9375 51.640625 C-19.84822266 52.73793945 -19.84822266 52.73793945 -20.77734375 53.85742188 C-21.41027344 54.61216797 -22.04320312 55.36691406 -22.6953125 56.14453125 C-23.94297238 57.64300935 -25.19037484 59.14170184 -26.4375 60.640625 C-27.0253125 61.34348633 -27.613125 62.04634766 -28.21875 62.77050781 C-29.54761999 64.3773061 -30.84110148 66.01329511 -32.125 67.65625 C-34.25286139 70.23027587 -35.56088622 70.96625255 -38.8203125 71.70703125 C-44.71713658 71.2638445 -49.58130639 69.91783533 -55.046875 67.73046875 C-56.58843933 67.1364531 -58.13010915 66.54271115 -59.671875 65.94921875 C-62.06774008 65.01470335 -64.46165443 64.07557665 -66.85351562 63.13085938 C-69.18421336 62.2142072 -71.52117766 61.31528375 -73.859375 60.41796875 C-74.56889313 60.13158539 -75.27841125 59.84520203 -76.00942993 59.55014038 C-80.34324485 57.89798305 -83.34822382 57.35006286 -87.8203125 58.70703125 C-90.46343816 60.9017183 -90.46343816 60.9017183 -92.8203125 63.70703125 C-93.67109375 64.60679688 -94.521875 65.5065625 -95.3984375 66.43359375 C-100.65447508 72.13531873 -105.69094824 77.92406686 -110.5546875 83.96875 C-113.7553641 87.83715396 -117.14621563 91.51758696 -120.55859375 95.19921875 C-122.86323759 97.65787502 -122.86323759 97.65787502 -124.73828125 100.40234375 C-127.85276765 103.84989906 -130.69283692 104.52436062 -135.265625 104.91699219 C-138.12071597 105.04815555 -140.96232391 105.07824081 -143.8203125 105.08203125 C-144.79226563 105.10652344 -145.76421875 105.13101563 -146.765625 105.15625 C-152.61287858 105.18014886 -156.28412863 104.78815209 -160.8203125 100.70703125 C-163.14129627 97.89315038 -163.69239212 95.33308212 -163.8203125 91.70703125 C-162.68055547 86.77384048 -160.82246184 82.25154174 -158.91259766 77.57324219 C-157.63478027 74.22018539 -156.56469938 70.82527436 -155.48828125 67.40234375 C-154.84126451 65.44438489 -154.1860427 63.48943352 -153.52618408 61.5357666 C-152.89733674 59.6261372 -152.32173774 57.6992333 -151.74755859 55.77246094 C-149.66861257 49.80720773 -147.85299709 45.65732654 -142.01010132 42.71878052 C-139.37004463 41.57061443 -136.69350149 40.54794984 -133.99246216 39.55279541 C-130.97106587 38.37636234 -128.08909758 36.95949691 -125.17877197 35.53398132 C-98.02886279 22.26309747 -70.19119215 13.73305727 -40.96630859 6.30224609 C-36.85076617 5.24950871 -32.76049618 4.13457241 -28.67822266 2.95947266 C-27.6940889 2.67884476 -26.70995514 2.39821686 -25.69599915 2.10908508 C-23.86535681 1.58349461 -22.03753578 1.04791376 -20.21354675 0.49967957 C-13.6587518 -1.3702411 -6.40978767 -2.93855917 0 0 Z " fill="#EAAC6B" transform="translate(574.8203125,1.29296875)"/>
<path d="M0 0 C1.43487705 4.30463114 -0.39043547 7.27084481 -2.0078125 11.296875 C-2.49155838 12.53561371 -2.49155838 12.53561371 -2.9850769 13.79937744 C-4.02292023 16.45313817 -5.07320875 19.10173989 -6.125 21.75 C-7.48692715 25.20111569 -8.84254822 28.65465855 -10.1953125 32.109375 C-10.52911926 32.95665161 -10.86292603 33.80392822 -11.20684814 34.67687988 C-12.94377875 39.12575434 -14.54882923 43.57700918 -15.96865845 48.13673401 C-18.36333946 55.81441578 -21.58367556 62.30704835 -26 69 C-26.48525146 69.73603455 -26.97050293 70.47206909 -27.47045898 71.23040771 C-31.68028299 77.58346933 -35.96182457 83.88718072 -40.25 90.1875 C-42.77841725 93.90854864 -45.30438994 97.63124296 -47.828125 101.35546875 C-48.43684448 102.25345184 -49.04556396 103.15143494 -49.67272949 104.07662964 C-55.23667285 112.30673061 -60.64807109 120.63086233 -66 129 C-67.26068442 128.06844561 -68.51941383 127.13424522 -69.77734375 126.19897461 C-70.47851318 125.67903427 -71.17968262 125.15909393 -71.90209961 124.62339783 C-75.12224396 122.13158489 -78.05422223 119.36828041 -81 116.5625 C-82.22576867 115.40931187 -83.45232437 114.25695971 -84.6796875 113.10546875 C-85.25686523 112.56325684 -85.83404297 112.02104492 -86.42871094 111.46240234 C-88.88078046 109.1802556 -91.40933515 106.99237612 -93.9453125 104.8046875 C-96.66924703 102.41218226 -99.33343269 99.95594058 -102 97.5 C-105.3002483 94.46107665 -108.6094941 91.43843844 -112 88.5 C-115.92323658 85.09986163 -119.74385361 81.59037856 -123.55175781 78.06225586 C-127.1471598 74.74116717 -130.84045993 71.58004099 -134.671875 68.53515625 C-136 67 -136 67 -136 63 C-128.45406321 56.18097247 -119.1997737 51.92701327 -109.875 48.125 C-107.9160399 47.30420844 -105.95965399 46.47746415 -104.00328064 45.65052795 C-102.59776664 45.05673035 -101.19155093 44.46459133 -99.78468323 43.87400818 C-91.44435192 40.36676962 -83.17917019 36.69084366 -74.90966797 33.02047729 C-70.34375848 30.99432936 -65.7753731 28.97378135 -61.20703125 26.953125 C-60.29079987 26.54775009 -59.37456848 26.14237518 -58.43057251 25.72471619 C-46.35969324 20.38645762 -34.27193016 15.08662699 -22.18432617 9.78637695 C-21.36458817 9.42686951 -20.54485016 9.06736206 -19.70027161 8.69696045 C-18.19124984 8.03522652 -16.68213464 7.37370558 -15.17289734 6.71246338 C-10.10780245 4.49167928 -5.05212435 2.25012707 0 0 Z " fill="#F3C396" transform="translate(427,47)"/>
</svg>
